<?xml version="1.0" encoding="UTF-8" standalone="no"?>
<svg
   xmlns:dc="http://purl.org/dc/elements/1.1/"
   xmlns:cc="http://creativecommons.org/ns#"
   xmlns:rdf="http://www.w3.org/1999/02/22-rdf-syntax-ns#"
   xmlns:svg="http://www.w3.org/2000/svg"
   xmlns="http://www.w3.org/2000/svg"
   xmlns:sodipodi="http://sodipodi.sourceforge.net/DTD/sodipodi-0.dtd"
   xmlns:inkscape="http://www.inkscape.org/namespaces/inkscape"
   sodipodi:docname="logo_home.svg"
   inkscape:version="1.0 (4035a4fb49, 2020-05-01)"
   id="svg8"
   version="1.1"
   viewBox="0 0 58.208333 58.208332"
   height="220"
   width="220">
  <defs
     id="defs2">
    <inkscape:path-effect
       hide_knots="false"
       only_selected="true"
       apply_with_radius="true"
       apply_no_radius="true"
       use_knot_distance="true"
       flexible="false"
       chamfer_steps="1"
       radius="10"
       mode="F"
       method="auto"
       unit="px"
       satellites_param="F,0,0,1,0,0,0,1 @ F,0,1,1,0,2.6458333,0,1 @ F,0,1,1,0,2.6458333,0,1 @ F,0,0,1,0,0,0,1"
       lpeversion="1"
       is_visible="true"
       id="path-effect1050"
       effect="fillet_chamfer" />
  </defs>
  <sodipodi:namedview
     inkscape:window-maximized="1"
     inkscape:window-y="-8"
     inkscape:window-x="1912"
     inkscape:window-height="1027"
     inkscape:window-width="1920"
     units="px"
     showgrid="false"
     inkscape:document-rotation="0"
     inkscape:current-layer="layer1"
     inkscape:document-units="mm"
     inkscape:cy="102.25267"
     inkscape:cx="97.569651"
     inkscape:zoom="2.6199074"
     inkscape:pageshadow="2"
     inkscape:pageopacity="0"
     borderopacity="1.0"
     bordercolor="#666666"
     pagecolor="#3b3b3b"
     id="base" />
  <metadata
     id="metadata5">
    <rdf:RDF>
      <cc:Work
         rdf:about="">
        <dc:format>image/svg+xml</dc:format>
        <dc:type
           rdf:resource="http://purl.org/dc/dcmitype/StillImage" />
        <dc:title></dc:title>
      </cc:Work>
    </rdf:RDF>
  </metadata>
  <g
     id="layer1"
     inkscape:groupmode="layer"
     inkscape:label="Layer 1">
    <g
       id="g1706"
       transform="matrix(2.0408939,0,0,2.0408939,177.5547,-65.477793)">
      <g
         id="g3967"
         transform="matrix(2.8151177,0,0,2.8151177,-91.974351,22.038905)">
        <path
           style="fill:#bdff00;fill-opacity:1;stroke:#333333;stroke-width:0;stroke-linecap:round"
           d="M 5.1822075,5.4334671 6.3222556,4.7699523 a 0.64143055,0.37331636 0 0 1 0.9071195,-1e-7 l 1.1400486,0.6635149 a 0.64143055,0.37331636 0 0 1 -3e-7,0.5279489 L 7.2293753,6.6249307 a 0.64143055,0.37331636 0 0 1 -0.9071195,2e-7 L 5.1822072,5.9614159 a 0.64143055,0.37331636 0 0 1 3e-7,-0.5279488 z"
           id="path1600" />
        <path
           sodipodi:nodetypes="ccccccscsccccccccccccccccccccccccccccccccccc"
           d="M 6.7692049,3.5678986 C 6.5869427,3.5690449 6.4081557,3.6178841 6.2506237,3.7095604 L 3.7399316,5.1707905 C 3.4149362,5.3599244 3.2155276,5.7080722 3.2168191,6.0840933 l 0.00501,1.4566449 5.939e-4,0.1798553 C 3.216803,8.0230316 3.175351,8.6556338 2.9440122,9.2035641 2.4975691,10.260974 1.8278192,10.291328 1.8278192,10.291328 c 0,0 0.9747131,0.425866 1.6613694,0.135242 0.5681241,-0.240457 1.1546427,0.0078 1.2950232,0.07995 l 0.032097,0.01861 1.4481215,0.839451 c 0.3249645,0.188382 0.7260743,0.187681 1.050379,-0.0018 L 9.8194637,9.8991955 C 10.144275,9.7093775 10.343674,9.3611844 10.343008,8.9849757 l -0.0051,-2.9008821 C 10.33728,5.7077761 10.13694,5.3600824 9.8116956,5.1707908 L 7.3010034,3.7095607 C 7.139597,3.6156292 6.9559507,3.566709 6.7692054,3.5678989 Z m -0.00108,0.6618612 c 0.1871107,-0.00138 0.371155,0.047543 0.5328768,0.1416618 l 1.5349036,0.9011178 c 0.2343517,0.136391 0.2343517,0.4749232 0,0.6113142 L 7.3010017,6.7471952 c -0.3246347,0.1889471 -0.7257444,0.1889471 -1.0503791,0 L 4.7672576,5.8838536 c -0.2343517,-0.136391 -0.2343517,-0.4749232 0,-0.6113142 L 6.2506226,4.3714216 C 6.4078375,4.2799262 6.586229,4.2310931 6.7681249,4.2297598 Z m 2.5540226,2.1669346 c 0.1939395,-0.00137 0.3518909,0.1554625 0.3518884,0.3494071 v 1.9001333 c 6.2e-6,0.3757206 -0.2015095,0.7225769 -0.5279108,0.9086634 L 7.3180487,10.59391 c -0.3275802,0.186783 -0.7290569,0.18836 -1.0580935,0.0042 L 4.3968993,9.5611106 C 4.0694808,9.3777972 3.8666995,9.0318432 3.8667199,8.656601 V 6.7397443 c 3.3e-6,-0.2695124 0.2922254,-0.4375512 0.5251625,-0.3019885 l 1.8587402,1.0818357 c 0.3246339,0.1889505 0.7257453,0.1889505 1.0503791,0 L 9.1488196,6.4441129 c 0.052653,-0.030647 0.1124059,-0.046994 0.1733279,-0.047419 z"
           style="fill:#e6e6e6;fill-opacity:1;stroke:#333333;stroke-width:0;stroke-linecap:round"
           id="path1604" />
      </g>
      <path
         id="path1629"
         style="font-style:normal;font-variant:normal;font-weight:normal;font-stretch:normal;font-size:22.0292px;line-height:1.25;font-family:'Ano Regular';-inkscape-font-specification:'Ano Regular, ';fill:#e6e6e6;fill-opacity:1;stroke:none;stroke-width:0.0888656"
         d="m -66.65977,56.900435 c -0.0327,0 -0.0654,7.9e-4 -0.0903,0.002 -0.69905,0.0447 -1.255551,0.60401 -1.300139,1.30021 -0.003,0.0498 -0.003,0.13081 -8.2e-5,0.18062 0.0444,0.69918 0.601051,1.25589 1.300221,1.30031 0.0498,0.003 0.13081,0.003 0.180599,-9e-5 0.696222,-0.0446 1.255662,-0.60118 1.300311,-1.30022 0.003,-0.0498 0.003,-0.13081 -9e-5,-0.18062 -0.0448,-0.69609 -0.604131,-1.2553 -1.300221,-1.30012 -0.0249,-0.002 -0.0576,-0.002 -0.0903,-0.002 z m -16.261868,0.0457 a 0.12425441,0.12425441 0 0 0 -0.12424,0.12424 v 2.41749 a 0.12425441,0.12425441 0 0 0 0.12424,0.12424 h 0.0359 a 0.12425441,0.12425441 0 0 0 0.124251,-0.12424 v -0.96009 a 0.12425441,0.12425441 0 0 1 0.12424,-0.12424 h 0.391409 c 0.0686,0 0.18035,0.001 0.247901,-0.0105 0.302818,-0.052 0.54251,-0.29171 0.59454,-0.59453 0.01169,-0.0676 0.01169,-0.17977 0,-0.24732 -0.052,-0.30283 -0.291722,-0.54251 -0.59454,-0.59454 -0.0675,-0.0116 -0.179282,-0.0105 -0.247901,-0.0105 z m 3.84288,0 a 0.13555028,0.13555028 0 0 0 -0.135591,0.13558 v 2.39481 a 0.13555028,0.13555028 0 0 0 0.135591,0.13558 h 0.80582 c 0.0749,0 0.1968,10e-4 0.27041,-0.0118 0.307469,-0.0545 0.550378,-0.29227 0.606549,-0.59629 0.0136,-0.0735 0.0136,-0.19614 1.69e-4,-0.26967 -0.0303,-0.16478 -0.116578,-0.30536 -0.245819,-0.41083 -0.0579,-0.0473 -0.0623,-0.11208 -0.01,-0.16519 0.0989,-0.0997 0.160771,-0.21173 0.186362,-0.33462 0.01529,-0.0732 0.0149,-0.19599 0.0011,-0.2695 -0.0561,-0.304 -0.299061,-0.54168 -0.606541,-0.5962 -0.0736,-0.0131 -0.195551,-0.0119 -0.27041,-0.0119 z m 2.27022,0 a 0.13555028,0.13555028 0 0 0 -0.135591,0.13558 v 2.39481 a 0.13555028,0.13555028 0 0 0 0.135591,0.13558 h 0.15535 a 0.13555028,0.13555028 0 0 0 0.135589,-0.13558 v -2.39481 a 0.13555028,0.13555028 0 0 0 -0.135589,-0.13558 z m 5.033359,0 a 0.13555028,0.13555028 0 0 0 -0.13558,0.13558 v 2.39481 a 0.13555028,0.13555028 0 0 0 0.13558,0.13558 h 0.15543 a 0.13555028,0.13555028 0 0 0 0.135591,-0.13558 v -0.31177 a 0.04916755,0.04916755 0 0 1 0.0869,-0.0315 l 0.3132,0.37481 a 0.28985612,0.28985612 0 0 0 0.222459,0.10406 h 0.269081 a 0.06316596,0.06316596 0 0 0 0.0484,-0.10381 l -0.497398,-0.5922 a 0.16136659,0.16136659 0 0 1 0,-0.20763 l 0.497379,-0.59211 a 0.06316176,0.06316176 0 0 0 -0.0484,-0.10382 h -0.269081 a 0.28985612,0.28985612 0 0 0 -0.222459,0.10407 l -0.31319,0.37481 a 0.04916755,0.04916755 0 0 1 -0.0869,-0.0315 v -1.37818 a 0.13555028,0.13555028 0 0 0 -0.135591,-0.13558 z m 1.710471,0 a 0.09036687,0.09036687 0 0 0 -0.0904,0.0904 v 2.48519 a 0.09036687,0.09036687 0 0 0 0.0904,0.0904 h 0.839348 c 0.0499,0 0.13095,5.3e-4 0.18053,-0.005 0.368491,-0.0413 0.659832,-0.33261 0.701101,-0.7011 0.006,-0.0496 0.006,-0.13071 -9e-5,-0.18027 -0.01849,-0.16275 -0.0868,-0.30987 -0.18819,-0.42769 -0.0325,-0.0378 -0.037,-0.0966 -0.0109,-0.13916 0.0592,-0.0965 0.0973,-0.20645 0.110411,-0.32279 0.006,-0.0496 0.006,-0.13078 0,-0.18036 -0.0413,-0.36891 -0.33251,-0.66285 -0.701011,-0.70452 -0.0495,-0.006 -0.130709,-0.005 -0.180618,-0.005 z m 5.028358,0 a 0.04669097,0.04669097 0 0 0 -0.0381,0.0737 l 0.841021,1.18556 a 0.12739015,0.12739015 0 0 1 0,0.14743 l -0.841021,1.18556 a 0.04669097,0.04669097 0 0 0 0.0381,0.0737 h 0.562182 a 0.17442769,0.17442769 0 0 0 0.14251,-0.0738 l 0.46804,-0.66291 a 0.06400506,0.06400506 0 0 1 0.10446,-1.7e-4 l 0.47113,0.66316 a 0.17505863,0.17505863 0 0 0 0.142748,0.0737 h 0.562171 a 0.046691,0.046691 0 0 0 0.0381,-0.0737 l -0.840989,-1.18557 a 0.12739038,0.12739038 0 0 1 0,-0.14742 l 0.840999,-1.18557 a 0.04669102,0.04669102 0 0 0 -0.0381,-0.0737 h -0.56217 a 0.17506906,0.17506906 0 0 0 -0.142751,0.0736 l -0.471128,0.66308 a 0.06401165,0.06401165 0 0 1 -0.10447,-1.7e-4 l -0.46804,-0.66275 a 0.17443803,0.17443803 0 0 0 -0.1425,-0.0738 z m -17.600948,0.24882 h 0.391409 c 0.0686,0 0.181141,-0.002 0.24707,0.0162 0.15929,0.0442 0.271211,0.17414 0.308189,0.3403 0.0149,0.0668 0.0149,0.1798 0,0.24665 -0.0369,0.16616 -0.148899,0.29613 -0.308189,0.34029 -0.0659,0.0183 -0.17844,0.0163 -0.24707,0.0163 h -0.391409 a 0.12425441,0.12425441 0 0 1 -0.124241,-0.12425 v -0.71127 a 0.12425441,0.12425441 0 0 1 0.124241,-0.12424 z m 3.983209,0.12441 a 0.13555028,0.13555028 0 0 1 0.0021,0 h 0.276249 c 0.0749,0 0.19876,-0.003 0.268171,0.024 0.10028,0.0389 0.173868,0.12211 0.20696,0.22981 0.02191,0.0713 0.02191,0.19603 0,0.26733 -0.0331,0.10768 -0.10668,0.19089 -0.20696,0.22973 -0.0694,0.0269 -0.19331,0.024 -0.268171,0.024 h -0.27622 a 0.13555028,0.13555028 0 0 1 -0.13557,-0.13558 v -0.50373 a 0.13555028,0.13555028 0 0 1 0.13375,-0.13559 z m 11.994319,0.16443 c 0.0327,0 0.0655,0.002 0.0902,0.004 0.356809,0.043 0.643628,0.33795 0.683509,0.71477 0.005,0.0496 0.005,0.13083 7.9e-5,0.18045 -0.0396,0.37945 -0.32662,0.67232 -0.68367,0.71495 -0.0495,0.006 -0.130749,0.006 -0.180279,0 -0.357489,-0.0426 -0.647089,-0.33548 -0.687099,-0.71495 -0.005,-0.0496 -0.005,-0.13084 9e-5,-0.18045 0.0402,-0.37687 0.329718,-0.67182 0.686998,-0.71477 0.02479,-0.003 0.0574,-0.004 0.0901,-0.004 z m -2.794478,0.0453 a 0.09036687,0.09036687 0 0 1 5.29e-4,0 h 0.121409 c 0.0499,0 0.133419,-0.002 0.17761,0.0201 0.0454,0.0228 0.0811,0.0644 0.0991,0.12182 0.01479,0.0474 0.01479,0.13082 0,0.17828 -0.01799,0.0574 -0.0537,0.099 -0.0991,0.12182 -0.0442,0.0222 -0.127691,0.0201 -0.17761,0.0201 h -0.12138 a 0.09036687,0.09036687 0 0 1 -0.0904,-0.0904 v -0.28134 a 0.09036687,0.09036687 0 0 1 0.0895,-0.0904 z m -3.6184,0.41409 c -0.049,2e-5 -0.0981,0.003 -0.13499,0.009 -0.372081,0.0583 -0.667102,0.3533 -0.725361,0.72537 -0.01159,0.0739 -0.01159,0.19612 0,0.26999 0.0583,0.37208 0.35328,0.66711 0.725361,0.72537 0.0739,0.0116 0.19608,0.0115 0.27001,1.8e-4 0.218688,-0.0337 0.409818,-0.14799 0.541999,-0.31162 0.047,-0.0582 0.0241,-0.14226 -0.0406,-0.18003 l -0.12483,-0.073 c -0.0647,-0.0378 -0.14156,-0.0114 -0.189788,0.0455 -0.0515,0.0608 -0.116282,0.1073 -0.188942,0.13316 -0.0702,0.025 -0.195649,0.025 -0.265919,2.7e-4 -0.14265,-0.0503 -0.25441,-0.1792 -0.294929,-0.34072 -0.0182,-0.0724 -0.0182,-0.19599 0,-0.26842 0.0405,-0.16152 0.152279,-0.29036 0.294929,-0.34062 0.0703,-0.0248 0.195691,-0.0249 0.266001,-2.6e-4 0.0734,0.0257 0.13793,0.0724 0.189198,0.1335 0.048,0.0572 0.125032,0.0839 0.18995,0.0466 l 0.12383,-0.0711 c 0.0649,-0.0373 0.0884,-0.12113 0.0418,-0.17962 -0.132202,-0.16594 -0.323662,-0.28103 -0.54275,-0.31486 -0.0369,-0.006 -0.086,-0.009 -0.135012,-0.008 z m -2.159,0.003 c -0.049,9e-5 -0.0981,0.002 -0.135162,0.007 -0.376288,0.0494 -0.665649,0.30745 -0.71695,0.72336 -0.009,0.0743 -0.009,0.19627 0.0011,0.27034 0.0581,0.41016 0.37774,0.66686 0.715859,0.72136 0.0738,0.0119 0.19626,0.0122 0.269912,-5.3e-4 0.0715,-0.0125 0.140899,-0.0352 0.20597,-0.0684 0.0666,-0.034 0.11406,-0.0347 0.11406,0.0124 h 0.29102 a 0.13555028,0.13555028 0 0 0 0.13557,-0.1356 v -0.52182 c 0,-0.0749 0.0011,-0.19653 -0.008,-0.27075 -0.0509,-0.40186 -0.330581,-0.68059 -0.73795,-0.73078 -0.0371,-0.005 -0.0862,-0.007 -0.13525,-0.007 z m -5.85602,0.0662 a 0.08084093,0.08084093 0 0 0 -0.0739,0.11357 l 0.606621,1.36884 a 0.28060108,0.28060108 0 0 1 7.9e-5,0.22723 l -0.15893,0.35922 c -0.0278,0.0628 -0.0702,0.16927 -0.12098,0.21463 -0.0185,0.0166 -0.0389,0.0295 -0.0606,0.0391 -0.0622,0.0277 -0.177451,0.0222 -0.243571,0.004 -0.007,-0.002 -0.0132,-0.004 -0.02,-0.006 -0.0654,-0.02 -0.113501,0.006 -0.113501,0.0744 v 0.011 c 0,0.0686 0.0495,0.15165 0.115991,0.16752 0.01259,0.003 0.0254,0.006 0.0379,0.008 0.0674,0.0124 0.17979,0.0143 0.24674,-1.6e-4 0.12137,-0.0262 0.231018,-0.0925 0.309859,-0.20246 0.0399,-0.0557 0.0834,-0.15894 0.111159,-0.22172 l 0.902052,-2.04407 a 0.08098215,0.08098215 0 0 0 -0.0741,-0.11365 h -0.0536 a 0.19054265,0.19054265 0 0 0 -0.17436,0.11372 l -0.45429,1.0309 a 0.05476169,0.05476169 0 0 1 -0.100219,0 l -0.454382,-1.03087 a 0.19055411,0.19055411 0 0 0 -0.174358,-0.11374 z m 5.866699,0.30635 c 0.0489,0 0.0979,0.006 0.13299,0.0185 0.142621,0.0503 0.254339,0.1792 0.294849,0.34071 0.0182,0.0724 0.0182,0.1959 0,0.26833 -0.0405,0.16152 -0.15222,0.29045 -0.294849,0.34071 -0.0703,0.0248 -0.195731,0.0248 -0.265999,0 -0.14265,-0.0503 -0.254402,-0.17919 -0.294931,-0.34071 -0.0182,-0.0724 -0.0182,-0.1959 0,-0.26833 0.0405,-0.16152 0.152289,-0.29045 0.294931,-0.34071 0.0352,-0.0124 0.0841,-0.0185 0.132988,-0.0185 z m -3.43312,0.1486 a 0.13555028,0.13555028 0 0 1 0.0021,0 h 0.347379 c 0.0749,0 0.198761,-0.003 0.268161,0.0241 0.099,0.0384 0.17291,0.11987 0.20646,0.22623 0.02241,0.0711 0.02241,0.19598 1.79e-4,0.26716 -0.0335,0.10726 -0.107579,0.19031 -0.206719,0.22939 -0.0692,0.0273 -0.193219,0.0245 -0.268081,0.0245 h -0.347339 a 0.13555028,0.13555028 0 0 1 -0.135581,-0.1356 v -0.50021 a 0.13555028,0.13555028 0 0 1 0.13376,-0.13559 z m 9.199841,0.10314 a 0.09036687,0.09036687 0 0 1 5.29e-4,0 h 0.213799 c 0.0499,0 0.133469,-0.002 0.17744,0.0208 0.0446,0.0229 0.0805,0.0643 0.0988,0.12117 0.01521,0.0473 0.01529,0.13078 -1.72e-4,0.17802 -0.01831,0.056 -0.0541,0.0962 -0.0985,0.11841 -0.0443,0.0221 -0.127691,0.0202 -0.17761,0.0202 h -0.213799 a 0.09036687,0.09036687 0 0 1 -0.0904,-0.0904 v -0.27774 a 0.09036687,0.09036687 0 0 1 0.0895,-0.0904 z" />
    </g>
  </g>
</svg>
