<?xml version="1.0" encoding="UTF-8" standalone="no"?>
<svg
   xmlns:dc="http://purl.org/dc/elements/1.1/"
   xmlns:cc="http://creativecommons.org/ns#"
   xmlns:rdf="http://www.w3.org/1999/02/22-rdf-syntax-ns#"
   xmlns:svg="http://www.w3.org/2000/svg"
   xmlns="http://www.w3.org/2000/svg"
   xmlns:sodipodi="http://sodipodi.sourceforge.net/DTD/sodipodi-0.dtd"
   xmlns:inkscape="http://www.inkscape.org/namespaces/inkscape"
   width="80"
   height="45"
   viewBox="0 0 21.166666 11.90625"
   version="1.1"
   id="svg8"
   inkscape:version="1.0 (4035a4fb49, 2020-05-01)"
   sodipodi:docname="text_logo.svg">
  <defs
     id="defs2" />
  <sodipodi:namedview
     id="base"
     pagecolor="#3b3b3b"
     bordercolor="#666666"
     borderopacity="1.0"
     inkscape:pageopacity="0"
     inkscape:pageshadow="2"
     inkscape:zoom="16.7"
     inkscape:cx="40"
     inkscape:cy="22.5"
     inkscape:document-units="mm"
     inkscape:current-layer="layer1"
     inkscape:document-rotation="0"
     showgrid="false"
     units="px"
     inkscape:window-width="1920"
     inkscape:window-height="1027"
     inkscape:window-x="1912"
     inkscape:window-y="-8"
     inkscape:window-maximized="1" />
  <metadata
     id="metadata5">
    <rdf:RDF>
      <cc:Work
         rdf:about="">
        <dc:format>image/svg+xml</dc:format>
        <dc:type
           rdf:resource="http://purl.org/dc/dcmitype/StillImage" />
        <dc:title></dc:title>
      </cc:Work>
    </rdf:RDF>
  </metadata>
  <g
     inkscape:label="Layer 1"
     inkscape:groupmode="layer"
     id="layer1">
    <path
       id="path1629"
       style="font-style:normal;font-variant:normal;font-weight:normal;font-stretch:normal;font-size:22.0292px;line-height:1.25;font-family:'Ano Regular';-inkscape-font-specification:'Ano Regular, ';fill:#e6e6e6;fill-opacity:1;stroke:none;stroke-width:0.0888656"
       d="m 16.714687,4.6302652 c -0.03273,-3.8e-6 -0.06539,7.7e-4 -0.09031,0.0023 -0.699042,0.044646 -1.255542,0.6040042 -1.300136,1.3002186 -0.0032,0.049798 -0.0032,0.1308117 -8.4e-5,0.1806112 0.0444,0.699174 0.60105,1.2558848 1.30022,1.3003028 0.04979,0.00315 0.130819,0.00315 0.180607,-8.54e-5 0.69622,-0.044596 1.255656,-0.6011743 1.300304,-1.3002193 0.0032,-0.049798 0.0032,-0.1308147 -8.4e-5,-0.1806112 -0.04484,-0.696086 -0.60413,-1.2553077 -1.30022,-1.3001352 -0.02489,-0.0016 -0.05762,-0.00244 -0.09031,-0.00244 z M 0.45281896,4.6759572 A 0.12425441,0.12425441 0 0 0 0.32857796,4.8002 v 2.4174917 a 0.12425441,0.12425441 0 0 0 0.124241,0.1242429 h 0.03586 a 0.12425441,0.12425441 0 0 0 0.124251,-0.1242421 V 6.2575997 a 0.12425441,0.12425441 0 0 1 0.124241,-0.1242429 H 1.12858 c 0.06861,0 0.180351,0.00109 0.247901,-0.010498 0.302825,-0.052024 0.542514,-0.2917078 0.594538,-0.5945326 0.01175,-0.067552 0.01175,-0.1797683 0,-0.2473199 C 1.918989,4.9781812 1.679306,4.7384966 1.376481,4.6864728 1.308941,4.6748738 1.197202,4.6759748 1.12858,4.6759748 Z m 3.84287924,0 A 0.13555028,0.13555028 0 0 0 4.1601071,4.811541 V 7.2063515 A 0.13555028,0.13555028 0 0 0 4.2956982,7.3419351 H 5.101523 c 0.07487,0 0.1967999,0.00122 0.2704131,-0.011848 0.3074699,-0.054539 0.5503789,-0.2922686 0.606542,-0.5962855 0.01365,-0.073513 0.01365,-0.1961417 1.73e-4,-0.2696658 C 5.9483011,6.2993522 5.8620741,6.1587692 5.732828,6.0532979 5.674898,6.0060209 5.670528,5.9412193 5.723328,5.8881125 5.822198,5.7884185 5.8840978,5.6763858 5.909696,5.5534897 5.924966,5.4803297 5.924646,5.3575039 5.910996,5.2839903 5.854866,4.97999 5.6119309,4.7423126 5.304456,4.6877906 5.230836,4.6747386 5.108899,4.6759416 5.034042,4.6759416 Z m 2.2702279,0 A 0.13555028,0.13555028 0 0 0 6.4303351,4.811541 v 2.3948105 a 0.13555028,0.13555028 0 0 0 0.135591,0.1355836 H 6.7212672 A 0.13555028,0.13555028 0 0 0 6.8568579,7.2063519 V 4.8115413 A 0.13555028,0.13555028 0 0 0 6.7212672,4.6759563 Z m 5.0333549,0 a 0.13555028,0.13555028 0 0 0 -0.135576,0.1355834 v 2.3948106 a 0.13555028,0.13555028 0 0 0 0.135576,0.1355834 h 0.155433 A 0.13555028,0.13555028 0 0 0 11.890305,7.2063519 V 6.8945765 a 0.04916755,0.04916755 0 0 1 0.08689,-0.03152 l 0.313193,0.374814 a 0.28985612,0.28985612 0 0 0 0.222463,0.1040636 h 0.269084 a 0.06316596,0.06316596 0 0 0 0.04838,-0.1038152 L 12.332911,6.6459227 a 0.16136659,0.16136659 0 0 1 0,-0.2076276 l 0.497385,-0.5921162 a 0.06316176,0.06316176 0 0 0 -0.04838,-0.1038154 h -0.26908 a 0.28985612,0.28985612 0 0 0 -0.22246,0.1040635 l -0.313193,0.3748149 a 0.04916755,0.04916755 0 0 1 -0.08689,-0.03152 V 4.8115413 a 0.13555028,0.13555028 0 0 0 -0.135594,-0.135585 z m 1.71047,0 a 0.09036687,0.09036687 0 0 0 -0.0904,0.09039 v 2.4851987 a 0.09036687,0.09036687 0 0 0 0.0904,0.090387 h 0.839353 c 0.04992,0 0.130951,5.556e-4 0.180529,-0.00507 0.36849,-0.041266 0.65983,-0.3326088 0.701102,-0.7010984 0.0058,-0.049574 0.0058,-0.1307178 -9e-5,-0.1802784 -0.01854,-0.1627433 -0.08676,-0.3098623 -0.188196,-0.4276805 -0.03252,-0.037801 -0.03702,-0.096652 -0.01087,-0.1391689 0.05922,-0.096457 0.09734,-0.2064427 0.110411,-0.322782 0.0058,-0.049574 0.0058,-0.1307882 0,-0.1803618 -0.04126,-0.3689113 -0.332503,-0.662849 -0.701012,-0.7045168 -0.04953,-0.00558 -0.130702,-0.00507 -0.180612,-0.00507 z m 5.028358,0 a 0.04669097,0.04669097 0 0 0 -0.03811,0.073712 l 0.841021,1.1855644 a 0.12739015,0.12739015 0 0 1 0,0.1474247 l -0.841021,1.1855646 a 0.04669097,0.04669097 0 0 0 0.03811,0.073717 h 0.562183 a 0.17442769,0.17442769 0 0 0 0.142507,-0.073795 l 0.46804,-0.6629126 a 0.06400506,0.06400506 0 0 1 0.104465,-1.707e-4 l 0.471124,0.6631583 a 0.17505863,0.17505863 0 0 0 0.142756,0.073717 h 0.562171 a 0.046691,0.046691 0 0 0 0.03811,-0.073719 L 19.988467,6.0826538 a 0.12739038,0.12739038 0 0 1 0,-0.1474239 l 0.841008,-1.185565 a 0.04669102,0.04669102 0 0 0 -0.03811,-0.073712 h -0.562171 a 0.17506906,0.17506906 0 0 0 -0.142757,0.073629 L 19.615308,5.4126574 A 0.06401165,0.06401165 0 0 1 19.510844,5.4124868 L 19.042804,4.7497444 A 0.17443803,0.17443803 0 0 0 18.900297,4.6759498 Z M 0.73716196,4.9247775 H 1.12857 c 0.06863,0 0.181145,-0.00206 0.247073,0.016258 0.159288,0.044166 0.271208,0.174132 0.308188,0.3402929 0.01489,0.066851 0.01489,0.1798003 0,0.2466521 -0.03695,0.1661599 -0.1489,0.2961307 -0.308188,0.3402927 -0.06592,0.018278 -0.178445,0.016264 -0.247073,0.016264 H 0.73716196 A 0.12425441,0.12425441 0 0 1 0.61292096,5.7602937 V 5.049021 a 0.12425441,0.12425441 0 0 1 0.124241,-0.1242435 z M 4.72037,5.0491863 a 0.13555028,0.13555028 0 0 1 0.00191,0 h 0.276251 c 0.07487,0 0.1987571,-0.00289 0.2681692,0.024015 0.10028,0.038854 0.173876,0.1221096 0.2069608,0.2298084 0.021881,0.071297 0.021881,0.1960358 0,0.2673323 -0.033105,0.1076782 -0.1066858,0.1908922 -0.2069658,0.2297249 -0.0694,0.026882 -0.1933041,0.024015 -0.2681692,0.024015 H 4.7223049 A 0.13555028,0.13555028 0 0 1 4.586729,5.6884971 V 5.1847707 A 0.13555028,0.13555028 0 0 1 4.7204841,5.0491859 Z m 11.994317,0.1644348 c 0.03266,7e-7 0.06547,0.00155 0.09022,0.00449 0.356819,0.043017 0.643637,0.3379359 0.68351,0.7147741 0.0051,0.049606 0.0051,0.1308279 8.4e-5,0.1804447 -0.03964,0.3794528 -0.32662,0.6723186 -0.68367,0.714941 -0.04953,0.00591 -0.130746,0.00591 -0.180279,0 -0.357487,-0.042599 -0.647095,-0.3354703 -0.687097,-0.7149424 -0.0051,-0.049611 -0.0051,-0.1308425 8.4e-5,-0.1804452 0.04023,-0.3768856 0.329725,-0.6718176 0.687006,-0.7147741 0.02477,-0.00295 0.05742,-0.00449 0.09013,-0.00449 z m -2.794474,0.045282 a 0.09036687,0.09036687 0 0 1 6.35e-4,0 h 0.121407 c 0.04992,0 0.133418,-0.00211 0.17761,0.020094 0.04536,0.022789 0.0811,0.064373 0.09906,0.1218247 0.01481,0.047451 0.01481,0.1308236 0,0.1782774 -0.01797,0.057452 -0.0537,0.099033 -0.09906,0.1218247 -0.0442,0.022193 -0.127691,0.020094 -0.17761,0.020094 h -0.121378 a 0.09036687,0.09036687 0 0 1 -0.0904,-0.090388 V 5.3492916 a 0.09036687,0.09036687 0 0 1 0.08947,-0.090388 z M 10.301815,5.672992 c -0.04901,2.18e-5 -0.09806,0.00295 -0.134989,0.00876 -0.3720829,0.058261 -0.667106,0.3532852 -0.7253659,0.7253645 -0.011589,0.073887 -0.011589,0.1961136 0,0.2699994 0.05826,0.3720792 0.353283,0.667107 0.7253659,0.7253645 0.07389,0.01157 0.19608,0.011554 0.270003,1.71e-4 0.218695,-0.033688 0.409824,-0.1479818 0.541998,-0.311609 0.04703,-0.058177 0.02412,-0.1422653 -0.04056,-0.1800282 l -0.124829,-0.072962 c -0.06465,-0.037763 -0.141552,-0.011438 -0.189782,0.045525 -0.05152,0.060808 -0.116284,0.1072995 -0.188947,0.1331653 -0.07018,0.024989 -0.195645,0.025021 -0.265915,2.559e-4 -0.142653,-0.05026 -0.2544129,-0.1791914 -0.2949328,-0.3407105 -0.018169,-0.072429 -0.018169,-0.1959859 0,-0.2684153 0.04055,-0.161519 0.1522808,-0.2903645 0.2949328,-0.3406267 0.07027,-0.024757 0.195689,-0.024924 0.265999,-2.566e-4 0.0734,0.025745 0.137924,0.072385 0.189197,0.1334986 0.048,0.057189 0.125034,0.08389 0.189948,0.04661 l 0.123831,-0.071126 c 0.06492,-0.037275 0.08837,-0.121117 0.04177,-0.179611 -0.132199,-0.1659394 -0.323657,-0.281042 -0.542751,-0.3148601 -0.03695,-0.00571 -0.08597,-0.00851 -0.135003,-0.0085 z m -2.1590009,0.00315 c -0.04901,8.53e-5 -0.09808,0.00244 -0.1351651,0.00734 C 7.6313639,5.732908 7.342,5.9909307 7.2906999,6.4068448 c -0.0091,0.074253 -0.0092,0.1962706 0.0013,0.2703329 0.05807,0.4101619 0.3777398,0.6668615 0.7158569,0.7213619 0.07384,0.011893 0.1962669,0.012216 0.2699189,-6.35e-4 0.07152,-0.01251 0.1408912,-0.035164 0.205962,-0.06837 0.06659,-0.033984 0.1140661,-0.03469 0.1140661,0.012422 H 8.8888189 A 0.13555028,0.13555028 0 0 0 9.0243931,7.2063559 V 6.6845352 c 0,-0.074864 0.0013,-0.1965298 -0.0084,-0.2707498 C 8.9651231,6.0119162 8.685407,5.7331899 8.27804,5.6830014 8.24089,5.6784514 8.19184,5.6760914 8.1427871,5.6761714 Z M 2.286787,5.742349 a 0.08084093,0.08084093 0 0 0 -0.07388,0.1135689 l 0.606624,1.3688476 a 0.28060108,0.28060108 0 0 1 8.4e-5,0.2272228 L 2.66068,7.8112107 c -0.02777,0.062752 -0.0702,0.1692717 -0.120982,0.2146321 -0.01854,0.016579 -0.03887,0.029481 -0.06056,0.039103 -0.06224,0.027677 -0.17745,0.022185 -0.243569,0.00436 -0.0067,-0.0018 -0.01321,-0.00371 -0.02001,-0.00571 -0.06544,-0.02005 -0.113494,0.00571 -0.113494,0.07438 v 0.011025 c 0,0.068618 0.04946,0.1516446 0.11599,0.1675196 0.01263,0.00301 0.0254,0.00565 0.03785,0.00788 0.06742,0.012377 0.179786,0.014256 0.24674,-1.698e-4 C 2.624008,8.2980366 2.733659,8.2317046 2.812501,8.1217719 2.852411,8.0661099 2.895941,7.9628346 2.92366,7.9000524 L 3.825715,5.8559825 A 0.08098215,0.08098215 0 0 0 3.751585,5.74233 H 3.697955 A 0.19054265,0.19054265 0 0 0 3.5235871,5.8560619 L 3.0693049,6.8869486 a 0.05476169,0.05476169 0 0 1 -0.1002209,0 L 2.514702,5.8560854 A 0.19055411,0.19055411 0 0 0 2.340343,5.7423476 Z M 8.15349,6.0487045 c 0.04889,0 0.09786,0.00617 0.132992,0.018508 0.1426239,0.050267 0.2543419,0.1791949 0.2948509,0.3407107 0.018169,0.072431 0.018169,0.1959017 0,0.2683317 -0.04048,0.1615159 -0.1522248,0.2904461 -0.2948509,0.3407106 -0.07027,0.024764 -0.1957289,0.024759 -0.2659991,0 C 7.8778299,6.9667015 7.766077,6.83777 7.72555,6.6762509 7.707381,6.6038219 7.707381,6.4803493 7.72555,6.4079192 7.7661,6.2464001 7.877837,6.1174712 8.0204829,6.0672084 c 0.03516,-0.012377 0.08409,-0.018508 0.132992,-0.018508 z M 4.72037,6.1972971 a 0.13555028,0.13555028 0 0 1 0.00191,0 h 0.3473821 c 0.07487,0 0.1987579,-0.00282 0.2681621,0.024096 0.09896,0.038347 0.1729068,0.119872 0.2064599,0.2262236 0.02245,0.071115 0.022389,0.1959793 1.741e-4,0.2671642 -0.03349,0.1072584 -0.1075772,0.1903144 -0.2067121,0.2293914 -0.06924,0.027291 -0.1932199,0.024514 -0.268084,0.024514 H 4.72231 A 0.13555028,0.13555028 0 0 1 4.586734,6.8330943 V 6.332877 A 0.13555028,0.13555028 0 0 1 4.7204901,6.197292 Z m 9.199843,0.1031418 a 0.09036687,0.09036687 0 0 1 6.35e-4,0 h 0.213794 c 0.04992,0 0.133476,-0.00186 0.177445,0.020761 0.04459,0.022929 0.08053,0.064265 0.09881,0.1211583 0.01521,0.047321 0.01527,0.1307839 -1.73e-4,0.1780264 -0.01828,0.056022 -0.05409,0.096194 -0.09847,0.1184067 -0.04427,0.022128 -0.127691,0.020177 -0.177611,0.020177 h -0.213787 a 0.09036687,0.09036687 0 0 1 -0.0904,-0.090388 V 6.3908269 a 0.09036687,0.09036687 0 0 1 0.08947,-0.09039 z" />
  </g>
</svg>
